# xmcd
#
# Track frame offsets:
#	150
#	17822
#	28082
#	43220
#	64337
#	84730
#	99327
#	116365
#	137715
#	156757
#	179745
#	195252
#	229480
#
# Disc length: 3172 seconds
#
# Revision: 0
# Processed by: cddbd v1.5.1PL0 Copyright (c) Steve Scherf et al.
# Submitted via: dBpowerAMP V4.0
#
DISCID=b20c620d
DTITLE=B-J Hegen Bluesband - Been Down So Long
DYEAR=1900
DGENRE=Blues
TTITLE0=Hard Times Blues
TTITLE1=Going Down South Blues
TTITLE2=21 Below Zero
TTITLE3=Baby Please Come Back To Me
TTITLE4=Real Thing Blues
TTITLE5=Here´s My Picture
TTITLE6=Titanic Blues
TTITLE7=One Way Gall Blues
TTITLE8=A Good Woman Is Hard To Find
TTITLE9=Rattin´And Runnin´Around Blues
TTITLE10=Mean Old Train Blues
TTITLE11=Greyghound Bus Station Blues
TTITLE12=She´s Allright Blues
EXTD=
EXTT0=
EXTT1=
EXTT2=
EXTT3=
EXTT4=
EXTT5=
EXTT6=
EXTT7=
EXTT8=
EXTT9=
EXTT10=
EXTT11=
EXTT12=
PLAYORDER=
